# xmcd
#
# Track frame offsets:
#	150
#	15841
#	30121
#	43703
#	60064
#	78015
#	92146
#	111574
#	127113
#	141034
#	154152
#	167124
#	187193
#	198074
#	215286
#
# Disc length: 3131
#
# Revision: 1
# Processed by: cddbd v1.5.2PL0 Copyright (c) Steve Scherf et al.
# Submitted via: kJams Pro (development) 1.0patch49.33
#
DISCID=b80c390f
DTITLE=Gene Watson - CB 90326
DYEAR=2008
DGENRE=Country
TTITLE0=Gene Watson - The Jukebox Played Along
TTITLE1=Gene Watson - You're Just Another Beer Drinking Song
TTITLE2=Gene Watson - I Don't Need A Thing At All
TTITLE3=Gene Watson - Maybe I Should Have been Listening
TTITLE4=Gene Watson - What She Don't Know Won't Hurt Her
TTITLE5=Gene Watson - Between This Time And The Next Time
TTITLE6=Gene Watson - The Old Man And His Horn
TTITLE7=Gene Watson - This Dream's On Me
TTITLE8=Gene Watson - One Sided Conversation
TTITLE9=Gene Watson - Memories To Burn
TTITLE10=Gene Watson - Jesus Is All I Need
TTITLE11=Gene Watson - Over There
TTITLE12=Gene Watson - The City
TTITLE13=Gene Watson - Climb Higher
TTITLE14=Gene Watson - Shine From The Mountain
EXTD=
EXTT0=
EXTT1=
EXTT2=
EXTT3=
EXTT4=
EXTT5=
EXTT6=
EXTT7=
EXTT8=
EXTT9=
EXTT10=
EXTT11=
EXTT12=
EXTT13=
EXTT14=
PLAYORDER=
